<mxfile host="app.diagrams.net" modified="2023-12-31T01:16:25.892Z" agent="Mozilla/5.0 (Windows NT 10.0; Win64; x64) AppleWebKit/537.36 (KHTML, like Gecko) Chrome/120.0.0.0 Safari/537.36" version="22.1.16" etag="Mg57pLNOKOMA6EWxZm19" type="github">
  <diagram name="페이지-1" id="EEeshVTYlsAoFIxjqb51">
    <mxGraphModel>
      <root>
        <mxCell id="0" />
        <mxCell id="1" parent="0" />
      </root>
    </mxGraphModel>
  </diagram>
</mxfile>
